<svg xmlns="http://www.w3.org/2000/svg" xmlns:xlink="http://www.w3.org/1999/xlink" width="3000" zoomAndPan="magnify" viewBox="0 0 2250 809.999993" height="1080" preserveAspectRatio="xMidYMid meet" version="1.0"><defs><filter x="0%" y="0%" width="100%" height="100%" id="9a81d4fff5"><feColorMatrix values="0 0 0 0 1 0 0 0 0 1 0 0 0 0 1 0 0 0 1 0" color-interpolation-filters="sRGB"/></filter><g/><clipPath id="bdb26347fa"><rect x="0" width="1260" y="0" height="810"/></clipPath><mask id="8c083f97c9"><g filter="url(#9a81d4fff5)"><rect x="-225" width="2700" fill="#000000" y="-80.999999" height="971.999992" fill-opacity="0.23"/></g></mask><clipPath id="98c4504d4d"><path d="M 0 0 L 1022.878906 0 L 1022.878906 810 L 0 810 Z M 0 0 " clip-rule="nonzero"/></clipPath><clipPath id="75f1c4e68a"><path d="M 148 74 L 877 74 L 877 803 L 148 803 Z M 148 74 " clip-rule="nonzero"/></clipPath><clipPath id="6517cec46e"><path d="M 698.9375 -62.722656 L 1009.5625 247.902344 L 438.410156 819.050781 L 127.785156 508.425781 Z M 698.9375 -62.722656 " clip-rule="nonzero"/></clipPath><clipPath id="939a7e1b05"><path d="M 698.9375 -62.722656 L 1009.5625 247.902344 L 438.410156 819.050781 L 127.785156 508.425781 Z M 698.9375 -62.722656 " clip-rule="nonzero"/></clipPath><clipPath id="d2e3fd780e"><path d="M 18 72 L 746 72 L 746 801 L 18 801 Z M 18 72 " clip-rule="nonzero"/></clipPath><clipPath id="36a53c7551"><path d="M -119.183594 250.328125 L 191.441406 -60.296875 L 762.59375 510.851562 L 451.96875 821.476562 Z M -119.183594 250.328125 " clip-rule="nonzero"/></clipPath><clipPath id="cf9491c233"><path d="M -119.183594 250.328125 L 191.441406 -60.296875 L 762.59375 510.851562 L 451.96875 821.476562 Z M -119.183594 250.328125 " clip-rule="nonzero"/></clipPath><clipPath id="5d2a4f9ca6"><rect x="0" width="1023" y="0" height="810"/></clipPath><clipPath id="16038cd9d7"><rect x="0" width="1023" y="0" height="810"/></clipPath><clipPath id="e72bd19363"><path d="M 148 13 L 877 13 L 877 742 L 148 742 Z M 148 13 " clip-rule="nonzero"/></clipPath><clipPath id="b287793bf7"><path d="M 698.949219 -123.90625 L 1011.84375 188.992188 L 441.742188 759.09375 L 128.847656 446.199219 Z M 698.949219 -123.90625 " clip-rule="nonzero"/></clipPath><clipPath id="6aed5c9ff4"><path d="M 698.949219 -123.90625 L 1011.84375 188.992188 L 441.742188 759.09375 L 128.847656 446.199219 Z M 698.949219 -123.90625 " clip-rule="nonzero"/></clipPath><mask id="cc36d2fb1d"><g filter="url(#9a81d4fff5)"><rect x="-225" width="2700" fill="#000000" y="-80.999999" height="971.999992" fill-opacity="0.74"/></g></mask><clipPath id="6017bf9231"><path d="M 10 11 L 739 11 L 739 740 L 10 740 Z M 10 11 " clip-rule="nonzero"/></clipPath><clipPath id="a0c6f9f37f"><path d="M -126.851562 189.164062 L 186.042969 -123.730469 L 756.148438 446.375 L 443.253906 759.269531 Z M -126.851562 189.164062 " clip-rule="nonzero"/></clipPath><clipPath id="4c78383cf1"><path d="M -126.851562 189.164062 L 186.042969 -123.730469 L 756.148438 446.375 L 443.253906 759.269531 Z M -126.851562 189.164062 " clip-rule="nonzero"/></clipPath><clipPath id="79c67d37cb"><rect x="0" width="770" y="0" height="771"/></clipPath><clipPath id="952a4871a0"><path d="M 693.570312 86.269531 L 804.640625 86.269531 L 804.640625 197.339844 L 693.570312 197.339844 Z M 693.570312 86.269531 " clip-rule="nonzero"/></clipPath><clipPath id="24a1d1941e"><path d="M 749.105469 86.269531 C 718.433594 86.269531 693.570312 111.132812 693.570312 141.804688 C 693.570312 172.476562 718.433594 197.339844 749.105469 197.339844 C 779.777344 197.339844 804.640625 172.476562 804.640625 141.804688 C 804.640625 111.132812 779.777344 86.269531 749.105469 86.269531 Z M 749.105469 86.269531 " clip-rule="nonzero"/></clipPath><clipPath id="3e14aa4de9"><path d="M 0.570312 0.269531 L 111.640625 0.269531 L 111.640625 111.339844 L 0.570312 111.339844 Z M 0.570312 0.269531 " clip-rule="nonzero"/></clipPath><clipPath id="0cfc1dc66b"><path d="M 56.105469 0.269531 C 25.433594 0.269531 0.570312 25.132812 0.570312 55.804688 C 0.570312 86.476562 25.433594 111.339844 56.105469 111.339844 C 86.777344 111.339844 111.640625 86.476562 111.640625 55.804688 C 111.640625 25.132812 86.777344 0.269531 56.105469 0.269531 Z M 56.105469 0.269531 " clip-rule="nonzero"/></clipPath><clipPath id="82fed27d8e"><rect x="0" width="112" y="0" height="112"/></clipPath><clipPath id="4809979ef8"><path d="M 89.042969 79.183594 L 200.117188 79.183594 L 200.117188 190.257812 L 89.042969 190.257812 Z M 89.042969 79.183594 " clip-rule="nonzero"/></clipPath><clipPath id="71c2fec138"><path d="M 144.582031 79.183594 C 113.910156 79.183594 89.042969 104.046875 89.042969 134.71875 C 89.042969 165.390625 113.910156 190.257812 144.582031 190.257812 C 175.253906 190.257812 200.117188 165.390625 200.117188 134.71875 C 200.117188 104.046875 175.253906 79.183594 144.582031 79.183594 Z M 144.582031 79.183594 " clip-rule="nonzero"/></clipPath><clipPath id="15d6ee54c9"><path d="M 0.0429688 0.183594 L 111.117188 0.183594 L 111.117188 111.257812 L 0.0429688 111.257812 Z M 0.0429688 0.183594 " clip-rule="nonzero"/></clipPath><clipPath id="8d51974055"><path d="M 55.582031 0.183594 C 24.910156 0.183594 0.0429688 25.046875 0.0429688 55.71875 C 0.0429688 86.390625 24.910156 111.257812 55.582031 111.257812 C 86.253906 111.257812 111.117188 86.390625 111.117188 55.71875 C 111.117188 25.046875 86.253906 0.183594 55.582031 0.183594 Z M 55.582031 0.183594 " clip-rule="nonzero"/></clipPath><clipPath id="066a46e09c"><rect x="0" width="112" y="0" height="112"/></clipPath></defs><g transform="matrix(1, 0, 0, 1, 990, 0.000000000000039746)"><g clip-path="url(#bdb26347fa)"><g fill="#0746e8" fill-opacity="1"><g transform="translate(0.725233, 371.256111)"><g><path d="M 187.328125 -138.484375 C 202.972656 -135.148438 215.539062 -127.390625 225.03125 -115.203125 C 234.519531 -103.023438 239.265625 -89.113281 239.265625 -73.46875 C 239.265625 -50.90625 231.378906 -33.019531 215.609375 -19.8125 C 199.835938 -6.601562 177.847656 0 149.640625 0 L 23.84375 0 L 23.84375 -270.046875 L 145.40625 -270.046875 C 172.84375 -270.046875 194.316406 -263.757812 209.828125 -251.1875 C 225.347656 -238.625 233.109375 -221.570312 233.109375 -200.03125 C 233.109375 -184.132812 228.941406 -170.925781 220.609375 -160.40625 C 212.273438 -149.894531 201.179688 -142.585938 187.328125 -138.484375 Z M 89.625 -160.796875 L 132.71875 -160.796875 C 143.488281 -160.796875 151.753906 -163.164062 157.515625 -167.90625 C 163.285156 -172.65625 166.171875 -179.644531 166.171875 -188.875 C 166.171875 -198.101562 163.285156 -205.15625 157.515625 -210.03125 C 151.753906 -214.90625 143.488281 -217.34375 132.71875 -217.34375 L 89.625 -217.34375 Z M 138.09375 -53.078125 C 149.125 -53.078125 157.648438 -55.578125 163.671875 -60.578125 C 169.703125 -65.585938 172.71875 -72.832031 172.71875 -82.3125 C 172.71875 -91.800781 169.578125 -99.238281 163.296875 -104.625 C 157.015625 -110.007812 148.359375 -112.703125 137.328125 -112.703125 L 89.625 -112.703125 L 89.625 -53.078125 Z M 138.09375 -53.078125 "/></g></g></g><g fill="#0746e8" fill-opacity="1"><g transform="translate(254.156689, 371.256111)"><g><path d="M 89.625 -50.78125 L 175.796875 -50.78125 L 175.796875 0 L 23.84375 0 L 23.84375 -270.046875 L 89.625 -270.046875 Z M 89.625 -50.78125 "/></g></g></g><g fill="#0746e8" fill-opacity="1"><g transform="translate(437.596456, 371.256111)"><g><path d="M 88.46875 -270.046875 L 88.46875 -108.484375 C 88.46875 -92.328125 92.441406 -79.882812 100.390625 -71.15625 C 108.347656 -62.4375 120.019531 -58.078125 135.40625 -58.078125 C 150.789062 -58.078125 162.585938 -62.4375 170.796875 -71.15625 C 179.003906 -79.882812 183.109375 -92.328125 183.109375 -108.484375 L 183.109375 -270.046875 L 248.875 -270.046875 L 248.875 -108.859375 C 248.875 -84.753906 243.742188 -64.367188 233.484375 -47.703125 C 223.234375 -31.035156 209.453125 -18.46875 192.140625 -10 C 174.828125 -1.539062 155.53125 2.6875 134.25 2.6875 C 112.96875 2.6875 93.925781 -1.476562 77.125 -9.8125 C 60.332031 -18.144531 47.0625 -30.707031 37.3125 -47.5 C 27.570312 -64.300781 22.703125 -84.753906 22.703125 -108.859375 L 22.703125 -270.046875 Z M 88.46875 -270.046875 "/></g></g></g><g fill="#0746e8" fill-opacity="1"><g transform="translate(708.718042, 371.256111)"><g><path d="M 89.625 -217.34375 L 89.625 -162.71875 L 177.71875 -162.71875 L 177.71875 -111.9375 L 89.625 -111.9375 L 89.625 -52.703125 L 189.265625 -52.703125 L 189.265625 0 L 23.84375 0 L 23.84375 -270.046875 L 189.265625 -270.046875 L 189.265625 -217.34375 Z M 89.625 -217.34375 "/></g></g></g><g fill="#0e0067" fill-opacity="1"><g transform="translate(0.725233, 695.203568)"><g><path d="M 257.734375 -270.046875 L 257.734375 0 L 191.953125 0 L 191.953125 -111.171875 L 89.625 -111.171875 L 89.625 0 L 23.84375 0 L 23.84375 -270.046875 L 89.625 -270.046875 L 89.625 -164.25 L 191.953125 -164.25 L 191.953125 -270.046875 Z M 257.734375 -270.046875 "/></g></g></g><g fill="#0e0067" fill-opacity="1"><g transform="translate(281.845683, 695.203568)"><g><path d="M 89.625 -217.34375 L 89.625 -162.71875 L 177.71875 -162.71875 L 177.71875 -111.9375 L 89.625 -111.9375 L 89.625 -52.703125 L 189.265625 -52.703125 L 189.265625 0 L 23.84375 0 L 23.84375 -270.046875 L 189.265625 -270.046875 L 189.265625 -217.34375 Z M 89.625 -217.34375 "/></g></g></g><g fill="#0e0067" fill-opacity="1"><g transform="translate(489.897909, 695.203568)"><g><path d="M 191.953125 -47.703125 L 91.171875 -47.703125 L 75.015625 0 L 6.15625 0 L 103.859375 -270.046875 L 180.03125 -270.046875 L 277.734375 0 L 208.109375 0 Z M 175.03125 -98.46875 L 141.5625 -197.34375 L 108.484375 -98.46875 Z M 175.03125 -98.46875 "/></g></g></g><g fill="#0e0067" fill-opacity="1"><g transform="translate(773.325724, 695.203568)"><g><path d="M 161.5625 0 L 105.40625 -101.9375 L 89.625 -101.9375 L 89.625 0 L 23.84375 0 L 23.84375 -270.046875 L 134.25 -270.046875 C 155.53125 -270.046875 173.671875 -266.328125 188.671875 -258.890625 C 203.679688 -251.453125 214.90625 -241.253906 222.34375 -228.296875 C 229.78125 -215.347656 233.5 -200.925781 233.5 -185.03125 C 233.5 -167.070312 228.429688 -151.039062 218.296875 -136.9375 C 208.171875 -122.832031 193.234375 -112.832031 173.484375 -106.9375 L 235.796875 0 Z M 89.625 -148.484375 L 130.40625 -148.484375 C 142.457031 -148.484375 151.492188 -151.429688 157.515625 -157.328125 C 163.546875 -163.222656 166.5625 -171.554688 166.5625 -182.328125 C 166.5625 -192.585938 163.546875 -200.664062 157.515625 -206.5625 C 151.492188 -212.46875 142.457031 -215.421875 130.40625 -215.421875 L 89.625 -215.421875 Z M 89.625 -148.484375 "/></g></g></g><g fill="#0e0067" fill-opacity="1"><g transform="translate(1024.065176, 695.203568)"><g><path d="M 218.109375 -270.046875 L 218.109375 -217.34375 L 146.5625 -217.34375 L 146.5625 0 L 80.78125 0 L 80.78125 -217.34375 L 9.234375 -217.34375 L 9.234375 -270.046875 Z M 218.109375 -270.046875 "/></g></g></g></g></g><g mask="url(#8c083f97c9)"><g transform="matrix(1, 0, 0, 1, 0, 0.000000000000039746)"><g clip-path="url(#16038cd9d7)"><g clip-path="url(#98c4504d4d)"><g transform="matrix(1, 0, 0, 1, 0, 0.000000000000039746)"><g clip-path="url(#5d2a4f9ca6)"><g clip-path="url(#75f1c4e68a)"><g clip-path="url(#6517cec46e)"><g clip-path="url(#939a7e1b05)"><path fill="#4b4a49" d="M 419.660156 790.902344 C 434.679688 805.921875 458.929688 805.917969 473.945312 790.902344 L 864.988281 399.859375 C 872.773438 392.074219 876.933594 381.398438 876.210938 370.542969 L 862.09375 125.167969 C 861.007812 105.625 845.628906 90.246094 826.085938 89.160156 L 580.53125 74.863281 C 569.671875 74.140625 558.996094 78.300781 551.214844 86.082031 L 160.171875 477.125 C 145.152344 492.144531 145.152344 516.394531 160.171875 531.414062 Z M 419.660156 790.902344 " fill-opacity="1" fill-rule="nonzero"/></g></g></g><g clip-path="url(#d2e3fd780e)"><g clip-path="url(#36a53c7551)"><g clip-path="url(#cf9491c233)"><path fill="#4b4a49" d="M 734.445312 529.601562 C 749.464844 514.582031 749.460938 490.335938 734.445312 475.316406 L 343.398438 84.273438 C 335.617188 76.492188 324.941406 72.328125 314.085938 73.054688 L 68.710938 87.167969 C 49.167969 88.253906 33.785156 103.632812 32.699219 123.179688 L 18.40625 368.734375 C 17.683594 379.589844 21.84375 390.265625 29.625 398.046875 L 420.667969 789.089844 C 435.6875 804.109375 459.933594 804.113281 474.953125 789.089844 Z M 734.445312 529.601562 " fill-opacity="1" fill-rule="nonzero"/></g></g></g></g></g></g></g></g></g><g clip-path="url(#e72bd19363)"><g clip-path="url(#b287793bf7)"><g clip-path="url(#6aed5c9ff4)"><path fill="#0746e8" d="M 419.664062 729.761719 C 434.683594 744.785156 458.933594 744.78125 473.953125 729.761719 L 865.019531 338.699219 C 872.800781 330.917969 876.960938 320.238281 876.238281 309.382812 L 862.121094 63.996094 C 861.035156 44.449219 845.65625 29.070312 826.109375 27.984375 L 580.542969 13.6875 C 569.683594 12.960938 559.007812 17.125 551.226562 24.90625 L 160.160156 415.972656 C 145.140625 430.992188 145.140625 455.242188 160.160156 470.261719 Z M 419.664062 729.761719 " fill-opacity="1" fill-rule="nonzero"/></g></g></g><g mask="url(#cc36d2fb1d)"><g transform="matrix(1, 0, 0, 1, 0, 0.000000000000039746)"><g clip-path="url(#79c67d37cb)"><g clip-path="url(#6017bf9231)"><g clip-path="url(#a0c6f9f37f)"><g clip-path="url(#4c78383cf1)"><path fill="#0e0067" d="M 726.816406 468.449219 C 741.835938 453.429688 741.835938 429.179688 726.816406 414.160156 L 335.75 23.097656 C 327.96875 15.316406 317.292969 11.152344 306.433594 11.875 L 61.046875 25.992188 C 41.503906 27.078125 26.121094 42.460938 25.035156 62.003906 L 10.738281 307.570312 C 10.015625 318.429688 14.175781 329.105469 21.960938 336.890625 L 413.023438 727.953125 C 428.042969 742.972656 452.292969 742.972656 467.3125 727.953125 Z M 726.816406 468.449219 " fill-opacity="1" fill-rule="nonzero"/></g></g></g></g></g></g><g clip-path="url(#952a4871a0)"><g clip-path="url(#24a1d1941e)"><g transform="matrix(1, 0, 0, 1, 693, 86)"><g clip-path="url(#82fed27d8e)"><g clip-path="url(#3e14aa4de9)"><g clip-path="url(#0cfc1dc66b)"><path fill="#ffffff" d="M 0.570312 0.269531 L 111.640625 0.269531 L 111.640625 111.339844 L 0.570312 111.339844 Z M 0.570312 0.269531 " fill-opacity="1" fill-rule="nonzero"/></g></g></g></g></g></g><g clip-path="url(#4809979ef8)"><g clip-path="url(#71c2fec138)"><g transform="matrix(1, 0, 0, 1, 89, 79)"><g clip-path="url(#066a46e09c)"><g clip-path="url(#15d6ee54c9)"><g clip-path="url(#8d51974055)"><path fill="#ffffff" d="M 0.0429688 0.183594 L 111.117188 0.183594 L 111.117188 111.257812 L 0.0429688 111.257812 Z M 0.0429688 0.183594 " fill-opacity="1" fill-rule="nonzero"/></g></g></g></g></g></g></svg>