<svg xmlns="http://www.w3.org/2000/svg" xmlns:xlink="http://www.w3.org/1999/xlink" width="5500" zoomAndPan="magnify" viewBox="0 0 4125 809.999993" height="1080" preserveAspectRatio="xMidYMid meet" version="1.0"><defs><filter x="0%" y="0%" width="100%" height="100%" id="896c383489"><feColorMatrix values="0 0 0 0 1 0 0 0 0 1 0 0 0 0 1 0 0 0 1 0" color-interpolation-filters="sRGB"/></filter><g/><mask id="66358f7c3a"><g filter="url(#896c383489)"><rect x="-412.5" width="4950" fill="#000000" y="-80.999999" height="971.999992" fill-opacity="0.23"/></g></mask><clipPath id="157d26819b"><path d="M 0 0 L 1001.28125 0 L 1001.28125 810 L 0 810 Z M 0 0 " clip-rule="nonzero"/></clipPath><clipPath id="a861375b1c"><path d="M 150 83 L 859 83 L 859 793 L 150 793 Z M 150 83 " clip-rule="nonzero"/></clipPath><clipPath id="dc09d3eefa"><path d="M 685.703125 -50.15625 L 988.214844 252.355469 L 431.984375 808.589844 L 129.472656 506.078125 Z M 685.703125 -50.15625 " clip-rule="nonzero"/></clipPath><clipPath id="f2c7d649ab"><path d="M 685.703125 -50.15625 L 988.214844 252.355469 L 431.984375 808.589844 L 129.472656 506.078125 Z M 685.703125 -50.15625 " clip-rule="nonzero"/></clipPath><clipPath id="c496ada0a2"><path d="M 22 82 L 732 82 L 732 791 L 22 791 Z M 22 82 " clip-rule="nonzero"/></clipPath><clipPath id="41cd2e16be"><path d="M -111.042969 254.71875 L 191.46875 -47.789062 L 747.699219 508.441406 L 445.1875 810.953125 Z M -111.042969 254.71875 " clip-rule="nonzero"/></clipPath><clipPath id="a8db17fd1e"><path d="M -111.042969 254.71875 L 191.46875 -47.789062 L 747.699219 508.441406 L 445.1875 810.953125 Z M -111.042969 254.71875 " clip-rule="nonzero"/></clipPath><clipPath id="92d3c6fdd8"><rect x="0" width="1002" y="0" height="810"/></clipPath><clipPath id="35ac632f1c"><rect x="0" width="1002" y="0" height="810"/></clipPath><clipPath id="d6980826a3"><path d="M 150 24 L 859 24 L 859 733 L 150 733 Z M 150 24 " clip-rule="nonzero"/></clipPath><clipPath id="249ac3bab4"><path d="M 685.71875 -109.734375 L 990.660156 195.203125 L 435.402344 750.460938 L 130.464844 445.519531 Z M 685.71875 -109.734375 " clip-rule="nonzero"/></clipPath><clipPath id="487b42e357"><path d="M 685.71875 -109.734375 L 990.660156 195.203125 L 435.402344 750.460938 L 130.464844 445.519531 Z M 685.71875 -109.734375 " clip-rule="nonzero"/></clipPath><mask id="3e82e05557"><g filter="url(#896c383489)"><rect x="-412.5" width="4950" fill="#000000" y="-80.999999" height="971.999992" fill-opacity="0.74"/></g></mask><clipPath id="7099cfc64f"><path d="M 15 22 L 724 22 L 724 731 L 15 731 Z M 15 22 " clip-rule="nonzero"/></clipPath><clipPath id="7d0d932eeb"><path d="M -118.515625 195.15625 L 186.425781 -109.785156 L 741.679688 445.46875 L 436.742188 750.410156 Z M -118.515625 195.15625 " clip-rule="nonzero"/></clipPath><clipPath id="fa18603172"><path d="M -118.515625 195.15625 L 186.425781 -109.785156 L 741.679688 445.46875 L 436.742188 750.410156 Z M -118.515625 195.15625 " clip-rule="nonzero"/></clipPath><clipPath id="8ac4ff70f6"><rect x="0" width="755" y="0" height="762"/></clipPath><clipPath id="2a942b8c8f"><path d="M 680.476562 94.949219 L 788.648438 94.949219 L 788.648438 203.117188 L 680.476562 203.117188 Z M 680.476562 94.949219 " clip-rule="nonzero"/></clipPath><clipPath id="c5217f6239"><path d="M 734.5625 94.949219 C 704.691406 94.949219 680.476562 119.164062 680.476562 149.03125 C 680.476562 178.902344 704.691406 203.117188 734.5625 203.117188 C 764.433594 203.117188 788.648438 178.902344 788.648438 149.03125 C 788.648438 119.164062 764.433594 94.949219 734.5625 94.949219 Z M 734.5625 94.949219 " clip-rule="nonzero"/></clipPath><clipPath id="4df0cda5b7"><path d="M 0.476562 0.949219 L 108.648438 0.949219 L 108.648438 109.117188 L 0.476562 109.117188 Z M 0.476562 0.949219 " clip-rule="nonzero"/></clipPath><clipPath id="347d832418"><path d="M 54.5625 0.949219 C 24.691406 0.949219 0.476562 25.164062 0.476562 55.03125 C 0.476562 84.902344 24.691406 109.117188 54.5625 109.117188 C 84.433594 109.117188 108.648438 84.902344 108.648438 55.03125 C 108.648438 25.164062 84.433594 0.949219 54.5625 0.949219 Z M 54.5625 0.949219 " clip-rule="nonzero"/></clipPath><clipPath id="7daf5f9816"><rect x="0" width="109" y="0" height="110"/></clipPath><clipPath id="738ffdd8d2"><path d="M 91.742188 88.046875 L 199.914062 88.046875 L 199.914062 196.21875 L 91.742188 196.21875 Z M 91.742188 88.046875 " clip-rule="nonzero"/></clipPath><clipPath id="eb6fff3de7"><path d="M 145.828125 88.046875 C 115.957031 88.046875 91.742188 112.261719 91.742188 142.132812 C 91.742188 172.003906 115.957031 196.21875 145.828125 196.21875 C 175.699219 196.21875 199.914062 172.003906 199.914062 142.132812 C 199.914062 112.261719 175.699219 88.046875 145.828125 88.046875 Z M 145.828125 88.046875 " clip-rule="nonzero"/></clipPath><clipPath id="e55296551a"><path d="M 0.742188 0.046875 L 108.914062 0.046875 L 108.914062 108.21875 L 0.742188 108.21875 Z M 0.742188 0.046875 " clip-rule="nonzero"/></clipPath><clipPath id="73699e89a8"><path d="M 54.828125 0.046875 C 24.957031 0.046875 0.742188 24.261719 0.742188 54.132812 C 0.742188 84.003906 24.957031 108.21875 54.828125 108.21875 C 84.699219 108.21875 108.914062 84.003906 108.914062 54.132812 C 108.914062 24.261719 84.699219 0.046875 54.828125 0.046875 Z M 54.828125 0.046875 " clip-rule="nonzero"/></clipPath><clipPath id="964411bf1d"><rect x="0" width="109" y="0" height="109"/></clipPath><mask id="879904e02c"><g filter="url(#896c383489)"><rect x="-412.5" width="4950" fill="#000000" y="-80.999999" height="971.999992" fill-opacity="0.23"/></g></mask><clipPath id="ffa45a0fa3"><rect x="0" width="2800" y="0" height="697"/></clipPath><clipPath id="933a033a9c"><rect x="0" width="2802" y="0" height="701"/></clipPath></defs><g mask="url(#66358f7c3a)"><g transform="matrix(1, 0, 0, 1, 0, 0.000000000000039746)"><g clip-path="url(#35ac632f1c)"><g clip-path="url(#157d26819b)"><g transform="matrix(1, 0, 0, 1, 0, 0.000000000000039746)"><g clip-path="url(#92d3c6fdd8)"><g clip-path="url(#a861375b1c)"><g clip-path="url(#dc09d3eefa)"><g clip-path="url(#f2c7d649ab)"><path fill="#4b4a49" d="M 413.722656 781.175781 C 428.351562 795.800781 451.964844 795.800781 466.59375 781.175781 L 847.421875 400.34375 C 855 392.765625 859.054688 382.371094 858.347656 371.796875 L 844.601562 132.832031 C 843.542969 113.796875 828.566406 98.820312 809.53125 97.761719 L 570.390625 83.839844 C 559.816406 83.132812 549.421875 87.1875 541.839844 94.765625 L 161.011719 475.59375 C 146.386719 490.222656 146.386719 513.835938 161.011719 528.464844 Z M 413.722656 781.175781 " fill-opacity="1" fill-rule="nonzero"/></g></g></g><g clip-path="url(#c496ada0a2)"><g clip-path="url(#41cd2e16be)"><g clip-path="url(#a8db17fd1e)"><path fill="#4b4a49" d="M 720.285156 526.703125 C 734.910156 512.074219 734.910156 488.460938 720.285156 473.832031 L 339.457031 93.003906 C 331.875 85.425781 321.480469 81.371094 310.90625 82.078125 L 71.941406 95.824219 C 52.90625 96.878906 37.929688 111.859375 36.871094 130.890625 L 22.949219 370.03125 C 22.246094 380.609375 26.296875 391.003906 33.875 398.582031 L 414.707031 779.414062 C 429.332031 794.039062 452.945312 794.039062 467.574219 779.414062 Z M 720.285156 526.703125 " fill-opacity="1" fill-rule="nonzero"/></g></g></g></g></g></g></g></g></g><g clip-path="url(#d6980826a3)"><g clip-path="url(#249ac3bab4)"><g clip-path="url(#487b42e357)"><path fill="#0746e8" d="M 413.726562 721.632812 C 428.355469 736.261719 451.972656 736.261719 466.597656 721.632812 L 847.445312 340.785156 C 855.023438 333.207031 859.078125 322.808594 858.375 312.234375 L 844.625 73.257812 C 843.570312 54.222656 828.589844 39.242188 809.554688 38.1875 L 570.402344 24.261719 C 559.828125 23.558594 549.429688 27.613281 541.851562 35.191406 L 161.003906 416.039062 C 146.375 430.664062 146.375 454.28125 161.003906 468.910156 Z M 413.726562 721.632812 " fill-opacity="1" fill-rule="nonzero"/></g></g></g><g mask="url(#3e82e05557)"><g transform="matrix(1, 0, 0, 1, 0, 0.000000000000039746)"><g clip-path="url(#8ac4ff70f6)"><g clip-path="url(#7099cfc64f)"><g clip-path="url(#7d0d932eeb)"><g clip-path="url(#fa18603172)"><path fill="#0e0067" d="M 712.855469 467.148438 C 727.480469 452.519531 727.480469 428.902344 712.855469 414.277344 L 332.003906 33.429688 C 324.425781 25.847656 314.027344 21.796875 303.453125 22.5 L 64.476562 36.246094 C 45.445312 37.304688 30.464844 52.285156 29.40625 71.320312 L 15.484375 310.472656 C 14.777344 321.046875 18.832031 331.445312 26.410156 339.023438 L 407.257812 719.871094 C 421.886719 734.496094 445.503906 734.5 460.128906 719.871094 Z M 712.855469 467.148438 " fill-opacity="1" fill-rule="nonzero"/></g></g></g></g></g></g><g clip-path="url(#2a942b8c8f)"><g clip-path="url(#c5217f6239)"><g transform="matrix(1, 0, 0, 1, 680, 94)"><g clip-path="url(#7daf5f9816)"><g clip-path="url(#4df0cda5b7)"><g clip-path="url(#347d832418)"><path fill="#ffffff" d="M 0.476562 0.949219 L 108.648438 0.949219 L 108.648438 109.117188 L 0.476562 109.117188 Z M 0.476562 0.949219 " fill-opacity="1" fill-rule="nonzero"/></g></g></g></g></g></g><g clip-path="url(#738ffdd8d2)"><g clip-path="url(#eb6fff3de7)"><g transform="matrix(1, 0, 0, 1, 91, 88)"><g clip-path="url(#964411bf1d)"><g clip-path="url(#e55296551a)"><g clip-path="url(#73699e89a8)"><path fill="#ffffff" d="M 0.742188 0.046875 L 108.914062 0.046875 L 108.914062 108.21875 L 0.742188 108.21875 Z M 0.742188 0.046875 " fill-opacity="1" fill-rule="nonzero"/></g></g></g></g></g></g><g mask="url(#879904e02c)"><g transform="matrix(1, 0, 0, 1, 1166, 69)"><g clip-path="url(#ffa45a0fa3)"><g fill="#4b4a49" fill-opacity="1"><g transform="translate(1.098162, 522.166425)"><g><path d="M 241.828125 -178.765625 C 262.015625 -174.460938 278.234375 -164.445312 290.484375 -148.71875 C 302.734375 -133 308.859375 -115.039062 308.859375 -94.84375 C 308.859375 -65.707031 298.675781 -42.613281 278.3125 -25.5625 C 257.957031 -8.519531 229.570312 0 193.15625 0 L 30.78125 0 L 30.78125 -348.59375 L 187.703125 -348.59375 C 223.117188 -348.59375 250.84375 -340.476562 270.875 -324.25 C 290.90625 -308.03125 300.921875 -286.019531 300.921875 -258.21875 C 300.921875 -237.6875 295.539062 -220.632812 284.78125 -207.0625 C 274.019531 -193.488281 259.703125 -184.054688 241.828125 -178.765625 Z M 115.703125 -207.5625 L 171.3125 -207.5625 C 185.21875 -207.5625 195.894531 -210.625 203.34375 -216.75 C 210.789062 -222.875 214.515625 -231.894531 214.515625 -243.8125 C 214.515625 -255.726562 210.789062 -264.832031 203.34375 -271.125 C 195.894531 -277.414062 185.21875 -280.5625 171.3125 -280.5625 L 115.703125 -280.5625 Z M 178.265625 -68.53125 C 192.503906 -68.53125 203.507812 -71.753906 211.28125 -78.203125 C 219.0625 -84.660156 222.953125 -94.015625 222.953125 -106.265625 C 222.953125 -118.515625 218.894531 -128.113281 210.78125 -135.0625 C 202.675781 -142.019531 191.503906 -145.5 177.265625 -145.5 L 115.703125 -145.5 L 115.703125 -68.53125 Z M 178.265625 -68.53125 "/></g></g></g><g fill="#4b4a49" fill-opacity="1"><g transform="translate(328.330691, 522.166425)"><g><path d="M 115.703125 -65.546875 L 226.921875 -65.546875 L 226.921875 0 L 30.78125 0 L 30.78125 -348.59375 L 115.703125 -348.59375 Z M 115.703125 -65.546875 "/></g></g></g><g fill="#4b4a49" fill-opacity="1"><g transform="translate(565.189461, 522.166425)"><g><path d="M 114.203125 -348.59375 L 114.203125 -140.03125 C 114.203125 -119.175781 119.332031 -103.117188 129.59375 -91.859375 C 139.863281 -80.609375 154.929688 -74.984375 174.796875 -74.984375 C 194.648438 -74.984375 209.875 -80.609375 220.46875 -91.859375 C 231.0625 -103.117188 236.359375 -119.175781 236.359375 -140.03125 L 236.359375 -348.59375 L 321.28125 -348.59375 L 321.28125 -140.53125 C 321.28125 -109.40625 314.65625 -83.082031 301.40625 -61.5625 C 288.164062 -40.050781 270.375 -23.832031 248.03125 -12.90625 C 225.6875 -1.988281 200.773438 3.46875 173.296875 3.46875 C 145.816406 3.46875 121.234375 -1.90625 99.546875 -12.65625 C 77.867188 -23.414062 60.738281 -39.632812 48.15625 -61.3125 C 35.582031 -83 29.296875 -109.40625 29.296875 -140.53125 L 29.296875 -348.59375 Z M 114.203125 -348.59375 "/></g></g></g><g fill="#4b4a49" fill-opacity="1"><g transform="translate(915.263614, 522.166425)"><g><path d="M 115.703125 -280.5625 L 115.703125 -210.046875 L 229.40625 -210.046875 L 229.40625 -144.5 L 115.703125 -144.5 L 115.703125 -68.03125 L 244.3125 -68.03125 L 244.3125 0 L 30.78125 0 L 30.78125 -348.59375 L 244.3125 -348.59375 L 244.3125 -280.5625 Z M 115.703125 -280.5625 "/></g></g></g><g fill="#4b4a49" fill-opacity="1"><g transform="translate(1183.9067, 522.166425)"><g><path d="M 332.703125 -348.59375 L 332.703125 0 L 247.78125 0 L 247.78125 -143.5 L 115.703125 -143.5 L 115.703125 0 L 30.78125 0 L 30.78125 -348.59375 L 115.703125 -348.59375 L 115.703125 -212.03125 L 247.78125 -212.03125 L 247.78125 -348.59375 Z M 332.703125 -348.59375 "/></g></g></g><g fill="#4b4a49" fill-opacity="1"><g transform="translate(1546.891442, 522.166425)"><g><path d="M 115.703125 -280.5625 L 115.703125 -210.046875 L 229.40625 -210.046875 L 229.40625 -144.5 L 115.703125 -144.5 L 115.703125 -68.03125 L 244.3125 -68.03125 L 244.3125 0 L 30.78125 0 L 30.78125 -348.59375 L 244.3125 -348.59375 L 244.3125 -280.5625 Z M 115.703125 -280.5625 "/></g></g></g><g fill="#4b4a49" fill-opacity="1"><g transform="translate(1815.529991, 522.166425)"><g><path d="M 247.78125 -61.578125 L 117.6875 -61.578125 L 96.828125 0 L 7.9375 0 L 134.078125 -348.59375 L 232.390625 -348.59375 L 358.515625 0 L 268.640625 0 Z M 225.9375 -127.125 L 182.734375 -254.734375 L 140.03125 -127.125 Z M 225.9375 -127.125 "/></g></g></g><g fill="#4b4a49" fill-opacity="1"><g transform="translate(2181.494085, 522.166425)"><g><path d="M 208.5625 0 L 136.0625 -131.59375 L 115.703125 -131.59375 L 115.703125 0 L 30.78125 0 L 30.78125 -348.59375 L 173.296875 -348.59375 C 200.773438 -348.59375 224.195312 -343.789062 243.5625 -334.1875 C 262.925781 -324.582031 277.40625 -311.421875 287 -294.703125 C 296.601562 -277.992188 301.40625 -259.375 301.40625 -238.84375 C 301.40625 -215.675781 294.867188 -194.988281 281.796875 -176.78125 C 268.722656 -158.570312 249.441406 -145.660156 223.953125 -138.046875 L 304.390625 0 Z M 115.703125 -191.671875 L 168.328125 -191.671875 C 183.890625 -191.671875 195.5625 -195.476562 203.34375 -203.09375 C 211.125 -210.707031 215.015625 -221.46875 215.015625 -235.375 C 215.015625 -248.613281 211.125 -259.039062 203.34375 -266.65625 C 195.5625 -274.269531 183.890625 -278.078125 168.328125 -278.078125 L 115.703125 -278.078125 Z M 115.703125 -191.671875 "/></g></g></g><g fill="#4b4a49" fill-opacity="1"><g transform="translate(2505.250724, 522.166425)"><g><path d="M 281.546875 -348.59375 L 281.546875 -280.5625 L 189.1875 -280.5625 L 189.1875 0 L 104.28125 0 L 104.28125 -280.5625 L 11.921875 -280.5625 L 11.921875 -348.59375 Z M 281.546875 -348.59375 "/></g></g></g></g></g></g><g transform="matrix(1, 0, 0, 1, 1166, 34)"><g clip-path="url(#933a033a9c)"><g fill="#0746e8" fill-opacity="1"><g transform="translate(1.098162, 525.26547)"><g><path d="M 241.8125 -178.75 C 262 -174.445312 278.21875 -164.429688 290.46875 -148.703125 C 302.71875 -132.984375 308.84375 -115.03125 308.84375 -94.84375 C 308.84375 -65.707031 298.660156 -42.613281 278.296875 -25.5625 C 257.941406 -8.519531 229.5625 0 193.15625 0 L 30.78125 0 L 30.78125 -348.5625 L 187.6875 -348.5625 C 223.101562 -348.5625 250.820312 -340.453125 270.84375 -324.234375 C 290.875 -308.015625 300.890625 -286.003906 300.890625 -258.203125 C 300.890625 -237.671875 295.507812 -220.617188 284.75 -207.046875 C 274 -193.484375 259.6875 -184.050781 241.8125 -178.75 Z M 115.6875 -207.546875 L 171.296875 -207.546875 C 185.203125 -207.546875 195.878906 -210.609375 203.328125 -216.734375 C 210.773438 -222.859375 214.5 -231.878906 214.5 -243.796875 C 214.5 -255.710938 210.773438 -264.816406 203.328125 -271.109375 C 195.878906 -277.398438 185.203125 -280.546875 171.296875 -280.546875 L 115.6875 -280.546875 Z M 178.25 -68.515625 C 192.488281 -68.515625 203.492188 -71.742188 211.265625 -78.203125 C 219.046875 -84.660156 222.9375 -94.007812 222.9375 -106.25 C 222.9375 -118.5 218.878906 -128.097656 210.765625 -135.046875 C 202.660156 -142.003906 191.492188 -145.484375 177.265625 -145.484375 L 115.6875 -145.484375 L 115.6875 -68.515625 Z M 178.25 -68.515625 "/></g></g></g><g fill="#0746e8" fill-opacity="1"><g transform="translate(328.226966, 525.26547)"><g><path d="M 115.6875 -65.546875 L 226.921875 -65.546875 L 226.921875 0 L 30.78125 0 L 30.78125 -348.5625 L 115.6875 -348.5625 Z M 115.6875 -65.546875 "/></g></g></g><g fill="#0746e8" fill-opacity="1"><g transform="translate(565.010642, 525.26547)"><g><path d="M 114.203125 -348.5625 L 114.203125 -140.015625 C 114.203125 -119.160156 119.332031 -103.101562 129.59375 -91.84375 C 139.851562 -80.59375 154.914062 -74.96875 174.78125 -74.96875 C 194.644531 -74.96875 209.867188 -80.59375 220.453125 -91.84375 C 231.046875 -103.101562 236.34375 -119.160156 236.34375 -140.015625 L 236.34375 -348.5625 L 321.25 -348.5625 L 321.25 -140.515625 C 321.25 -109.398438 314.628906 -83.082031 301.390625 -61.5625 C 288.148438 -40.050781 270.359375 -23.832031 248.015625 -12.90625 C 225.671875 -1.988281 200.765625 3.46875 173.296875 3.46875 C 145.816406 3.46875 121.234375 -1.90625 99.546875 -12.65625 C 77.867188 -23.414062 60.738281 -39.632812 48.15625 -61.3125 C 35.582031 -83 29.296875 -109.398438 29.296875 -140.515625 L 29.296875 -348.5625 Z M 114.203125 -348.5625 "/></g></g></g><g fill="#0746e8" fill-opacity="1"><g transform="translate(914.97383, 525.26547)"><g><path d="M 115.6875 -280.546875 L 115.6875 -210.03125 L 229.390625 -210.03125 L 229.390625 -144.484375 L 115.6875 -144.484375 L 115.6875 -68.03125 L 244.296875 -68.03125 L 244.296875 0 L 30.78125 0 L 30.78125 -348.5625 L 244.296875 -348.5625 L 244.296875 -280.546875 Z M 115.6875 -280.546875 "/></g></g></g><g fill="#0e0067" fill-opacity="1"><g transform="translate(1183.528704, 525.26547)"><g><path d="M 332.671875 -348.5625 L 332.671875 0 L 247.765625 0 L 247.765625 -143.5 L 115.6875 -143.5 L 115.6875 0 L 30.78125 0 L 30.78125 -348.5625 L 115.6875 -348.5625 L 115.6875 -212.015625 L 247.765625 -212.015625 L 247.765625 -348.5625 Z M 332.671875 -348.5625 "/></g></g></g><g fill="#0e0067" fill-opacity="1"><g transform="translate(1546.398405, 525.26547)"><g><path d="M 115.6875 -280.546875 L 115.6875 -210.03125 L 229.390625 -210.03125 L 229.390625 -144.484375 L 115.6875 -144.484375 L 115.6875 -68.03125 L 244.296875 -68.03125 L 244.296875 0 L 30.78125 0 L 30.78125 -348.5625 L 244.296875 -348.5625 L 244.296875 -280.546875 Z M 115.6875 -280.546875 "/></g></g></g><g fill="#0e0067" fill-opacity="1"><g transform="translate(1814.951791, 525.26547)"><g><path d="M 247.765625 -61.5625 L 117.671875 -61.5625 L 96.828125 0 L 7.9375 0 L 134.0625 -348.5625 L 232.375 -348.5625 L 358.5 0 L 268.625 0 Z M 225.921875 -127.109375 L 182.71875 -254.71875 L 140.015625 -127.109375 Z M 225.921875 -127.109375 "/></g></g></g><g fill="#0e0067" fill-opacity="1"><g transform="translate(2180.799834, 525.26547)"><g><path d="M 208.546875 0 L 136.046875 -131.578125 L 115.6875 -131.578125 L 115.6875 0 L 30.78125 0 L 30.78125 -348.5625 L 173.296875 -348.5625 C 200.765625 -348.5625 224.179688 -343.757812 243.546875 -334.15625 C 262.910156 -324.5625 277.390625 -311.40625 286.984375 -294.6875 C 296.585938 -277.96875 301.390625 -259.347656 301.390625 -238.828125 C 301.390625 -215.660156 294.851562 -194.972656 281.78125 -176.765625 C 268.707031 -158.554688 249.425781 -145.644531 223.9375 -138.03125 L 304.375 0 Z M 115.6875 -191.65625 L 168.328125 -191.65625 C 183.878906 -191.65625 195.546875 -195.460938 203.328125 -203.078125 C 211.109375 -210.691406 215 -221.453125 215 -235.359375 C 215 -248.597656 211.109375 -259.023438 203.328125 -266.640625 C 195.546875 -274.253906 183.878906 -278.0625 168.328125 -278.0625 L 115.6875 -278.0625 Z M 115.6875 -191.65625 "/></g></g></g><g fill="#0e0067" fill-opacity="1"><g transform="translate(2504.453805, 525.26547)"><g><path d="M 281.53125 -348.5625 L 281.53125 -280.546875 L 189.171875 -280.546875 L 189.171875 0 L 104.265625 0 L 104.265625 -280.546875 L 11.921875 -280.546875 L 11.921875 -348.5625 Z M 281.53125 -348.5625 "/></g></g></g></g></g></svg>