<svg xmlns="http://www.w3.org/2000/svg" xmlns:xlink="http://www.w3.org/1999/xlink" width="500" zoomAndPan="magnify" viewBox="0 0 375 374.999991" height="500" preserveAspectRatio="xMidYMid meet" version="1.0"><defs><filter x="0%" y="0%" width="100%" height="100%" id="a916ad3f21"><feColorMatrix values="0 0 0 0 1 0 0 0 0 1 0 0 0 0 1 0 0 0 1 0" color-interpolation-filters="sRGB"/></filter><mask id="bcafce92ef"><g filter="url(#a916ad3f21)"><rect x="-37.5" width="450" fill="#000000" y="-37.499999" height="449.999989" fill-opacity="0.23"/></g></mask><clipPath id="015502ae07"><path d="M 0 0 L 375 0 L 375 371.28125 L 0 371.28125 Z M 0 0 " clip-rule="nonzero"/></clipPath><clipPath id="6a95832610"><path d="M 63 52 L 371 52 L 371 359 L 63 359 Z M 63 52 " clip-rule="nonzero"/></clipPath><clipPath id="eca7c12e78"><path d="M 295.390625 -5.835938 L 426.121094 124.894531 L 185.742188 365.269531 L 55.011719 234.539062 Z M 295.390625 -5.835938 " clip-rule="nonzero"/></clipPath><clipPath id="e5fe200e74"><path d="M 295.390625 -5.835938 L 426.121094 124.894531 L 185.742188 365.269531 L 55.011719 234.539062 Z M 295.390625 -5.835938 " clip-rule="nonzero"/></clipPath><clipPath id="a70cc34406"><path d="M 8 51 L 316 51 L 316 358 L 8 358 Z M 8 51 " clip-rule="nonzero"/></clipPath><clipPath id="5981e61114"><path d="M -48.925781 125.914062 L 81.804688 -4.816406 L 322.179688 235.5625 L 191.449219 366.292969 Z M -48.925781 125.914062 " clip-rule="nonzero"/></clipPath><clipPath id="6ed3a7e60b"><path d="M -48.925781 125.914062 L 81.804688 -4.816406 L 322.179688 235.5625 L 191.449219 366.292969 Z M -48.925781 125.914062 " clip-rule="nonzero"/></clipPath><clipPath id="74eaa46cbe"><rect x="0" width="375" y="0" height="372"/></clipPath><clipPath id="17d6073331"><rect x="0" width="375" y="0" height="372"/></clipPath><clipPath id="6ed664994a"><path d="M 63 26 L 371 26 L 371 333 L 63 333 Z M 63 26 " clip-rule="nonzero"/></clipPath><clipPath id="b69800c3d9"><path d="M 295.394531 -31.582031 L 426.917969 99.941406 L 187.207031 339.648438 L 55.683594 208.125 Z M 295.394531 -31.582031 " clip-rule="nonzero"/></clipPath><clipPath id="6bf9f933cd"><path d="M 295.394531 -31.582031 L 426.917969 99.941406 L 187.207031 339.648438 L 55.683594 208.125 Z M 295.394531 -31.582031 " clip-rule="nonzero"/></clipPath><mask id="35506c6ca1"><g filter="url(#a916ad3f21)"><rect x="-37.5" width="450" fill="#000000" y="-37.499999" height="449.999989" fill-opacity="0.74"/></g></mask><clipPath id="0750b0fd62"><path d="M 5 25 L 312 25 L 312 332 L 5 332 Z M 5 25 " clip-rule="nonzero"/></clipPath><clipPath id="ba53c5ba94"><path d="M -52.15625 100.171875 L 79.367188 -31.351562 L 319.074219 208.359375 L 187.554688 339.878906 Z M -52.15625 100.171875 " clip-rule="nonzero"/></clipPath><clipPath id="701b6b15c2"><path d="M -52.15625 100.171875 L 79.367188 -31.351562 L 319.074219 208.359375 L 187.554688 339.878906 Z M -52.15625 100.171875 " clip-rule="nonzero"/></clipPath><clipPath id="67d0560eae"><rect x="0" width="325" y="0" height="345"/></clipPath><clipPath id="e1be65a471"><path d="M 293.128906 56.871094 L 339.875 56.871094 L 339.875 103.617188 L 293.128906 103.617188 Z M 293.128906 56.871094 " clip-rule="nonzero"/></clipPath><clipPath id="b276b7d599"><path d="M 316.503906 56.871094 C 303.59375 56.871094 293.128906 67.332031 293.128906 80.242188 C 293.128906 93.152344 303.59375 103.617188 316.503906 103.617188 C 329.410156 103.617188 339.875 93.152344 339.875 80.242188 C 339.875 67.332031 329.410156 56.871094 316.503906 56.871094 Z M 316.503906 56.871094 " clip-rule="nonzero"/></clipPath><clipPath id="f11881ebf6"><path d="M 0.128906 0.871094 L 46.875 0.871094 L 46.875 47.617188 L 0.128906 47.617188 Z M 0.128906 0.871094 " clip-rule="nonzero"/></clipPath><clipPath id="0ba9b09b7e"><path d="M 23.503906 0.871094 C 10.59375 0.871094 0.128906 11.332031 0.128906 24.242188 C 0.128906 37.152344 10.59375 47.617188 23.503906 47.617188 C 36.410156 47.617188 46.875 37.152344 46.875 24.242188 C 46.875 11.332031 36.410156 0.871094 23.503906 0.871094 Z M 23.503906 0.871094 " clip-rule="nonzero"/></clipPath><clipPath id="91fba990ba"><rect x="0" width="47" y="0" height="48"/></clipPath><clipPath id="a0ffb3b8f0"><path d="M 38.707031 53.886719 L 85.453125 53.886719 L 85.453125 100.632812 L 38.707031 100.632812 Z M 38.707031 53.886719 " clip-rule="nonzero"/></clipPath><clipPath id="a089c28459"><path d="M 62.082031 53.886719 C 49.171875 53.886719 38.707031 64.351562 38.707031 77.261719 C 38.707031 90.167969 49.171875 100.632812 62.082031 100.632812 C 74.988281 100.632812 85.453125 90.167969 85.453125 77.261719 C 85.453125 64.351562 74.988281 53.886719 62.082031 53.886719 Z M 62.082031 53.886719 " clip-rule="nonzero"/></clipPath><clipPath id="2cdfe6a26a"><path d="M 0.707031 0.886719 L 47.453125 0.886719 L 47.453125 47.632812 L 0.707031 47.632812 Z M 0.707031 0.886719 " clip-rule="nonzero"/></clipPath><clipPath id="7a52b8e856"><path d="M 24.082031 0.886719 C 11.171875 0.886719 0.707031 11.351562 0.707031 24.261719 C 0.707031 37.167969 11.171875 47.632812 24.082031 47.632812 C 36.988281 47.632812 47.453125 37.167969 47.453125 24.261719 C 47.453125 11.351562 36.988281 0.886719 24.082031 0.886719 Z M 24.082031 0.886719 " clip-rule="nonzero"/></clipPath><clipPath id="0827e20bf2"><rect x="0" width="48" y="0" height="48"/></clipPath></defs><g mask="url(#bcafce92ef)"><g transform="matrix(1, 0, 0, 1, 0, 0)"><g clip-path="url(#17d6073331)"><g clip-path="url(#015502ae07)"><g transform="matrix(1, 0, 0, 1, 0, 0)"><g clip-path="url(#74eaa46cbe)"><g clip-path="url(#6a95832610)"><g clip-path="url(#eca7c12e78)"><g clip-path="url(#e5fe200e74)"><path fill="#4b4a49" d="M 177.851562 353.421875 C 184.171875 359.746094 194.378906 359.742188 200.699219 353.421875 L 365.273438 188.847656 C 368.550781 185.570312 370.300781 181.078125 369.996094 176.507812 L 364.058594 73.242188 C 363.601562 65.015625 357.125 58.542969 348.902344 58.085938 L 245.554688 52.070312 C 240.988281 51.765625 236.492188 53.515625 233.21875 56.789062 L 68.644531 221.367188 C 62.320312 227.6875 62.320312 237.894531 68.644531 244.214844 Z M 177.851562 353.421875 " fill-opacity="1" fill-rule="nonzero"/></g></g></g><g clip-path="url(#a70cc34406)"><g clip-path="url(#5981e61114)"><g clip-path="url(#6ed3a7e60b)"><path fill="#4b4a49" d="M 310.332031 243.453125 C 316.652344 237.132812 316.652344 226.925781 310.332031 220.605469 L 145.757812 56.03125 C 142.480469 52.753906 137.988281 51.003906 133.417969 51.308594 L 30.152344 57.246094 C 21.925781 57.703125 15.453125 64.179688 14.996094 72.402344 L 8.980469 175.746094 C 8.675781 180.316406 10.425781 184.8125 13.699219 188.085938 L 178.277344 352.660156 C 184.597656 358.980469 194.800781 358.984375 201.125 352.660156 Z M 310.332031 243.453125 " fill-opacity="1" fill-rule="nonzero"/></g></g></g></g></g></g></g></g></g><g clip-path="url(#6ed664994a)"><g clip-path="url(#b69800c3d9)"><g clip-path="url(#6bf9f933cd)"><path fill="#0746e8" d="M 177.851562 327.6875 C 184.175781 334.007812 194.378906 334.007812 200.699219 327.6875 L 365.277344 163.109375 C 368.554688 159.832031 370.304688 155.339844 370 150.769531 L 364.058594 47.5 C 363.601562 39.273438 357.128906 32.800781 348.90625 32.34375 L 245.558594 26.328125 C 240.988281 26.023438 236.496094 27.773438 233.21875 31.050781 L 68.640625 195.628906 C 62.320312 201.949219 62.320312 212.152344 68.640625 218.476562 Z M 177.851562 327.6875 " fill-opacity="1" fill-rule="nonzero"/></g></g></g><g mask="url(#35506c6ca1)"><g transform="matrix(1, 0, 0, 1, 0, 0)"><g clip-path="url(#67d0560eae)"><g clip-path="url(#0750b0fd62)"><g clip-path="url(#ba53c5ba94)"><g clip-path="url(#701b6b15c2)"><path fill="#0e0067" d="M 307.113281 217.714844 C 313.433594 211.390625 313.433594 201.1875 307.113281 194.867188 L 142.535156 30.289062 C 139.257812 27.011719 134.765625 25.261719 130.195312 25.566406 L 26.925781 31.507812 C 18.699219 31.964844 12.226562 38.4375 11.769531 46.660156 L 5.753906 150.007812 C 5.449219 154.578125 7.199219 159.070312 10.476562 162.347656 L 175.054688 326.925781 C 181.375 333.246094 191.582031 333.246094 197.902344 326.925781 Z M 307.113281 217.714844 " fill-opacity="1" fill-rule="nonzero"/></g></g></g></g></g></g><g clip-path="url(#e1be65a471)"><g clip-path="url(#b276b7d599)"><g transform="matrix(1, 0, 0, 1, 293, 56)"><g clip-path="url(#91fba990ba)"><g clip-path="url(#f11881ebf6)"><g clip-path="url(#0ba9b09b7e)"><path fill="#ffffff" d="M 0.128906 0.871094 L 46.875 0.871094 L 46.875 47.617188 L 0.128906 47.617188 Z M 0.128906 0.871094 " fill-opacity="1" fill-rule="nonzero"/></g></g></g></g></g></g><g clip-path="url(#a0ffb3b8f0)"><g clip-path="url(#a089c28459)"><g transform="matrix(1, 0, 0, 1, 38, 53)"><g clip-path="url(#0827e20bf2)"><g clip-path="url(#2cdfe6a26a)"><g clip-path="url(#7a52b8e856)"><path fill="#ffffff" d="M 0.707031 0.886719 L 47.453125 0.886719 L 47.453125 47.632812 L 0.707031 47.632812 Z M 0.707031 0.886719 " fill-opacity="1" fill-rule="nonzero"/></g></g></g></g></g></g></svg>