<svg xmlns="http://www.w3.org/2000/svg" xmlns:xlink="http://www.w3.org/1999/xlink" width="5000" zoomAndPan="magnify" viewBox="0 0 3750 809.999993" height="1080" preserveAspectRatio="xMidYMid meet" version="1.0"><defs><filter x="0%" y="0%" width="100%" height="100%" id="7a93edd8ba"><feColorMatrix values="0 0 0 0 1 0 0 0 0 1 0 0 0 0 1 0 0 0 1 0" color-interpolation-filters="sRGB"/></filter><g/><mask id="b798080a85"><g filter="url(#7a93edd8ba)"><rect x="-375" width="4500" fill="#000000" y="-80.999999" height="971.999992" fill-opacity="0.23"/></g></mask><clipPath id="4bc5619d1e"><path d="M 0 0 L 1001.761719 0 L 1001.761719 810 L 0 810 Z M 0 0 " clip-rule="nonzero"/></clipPath><clipPath id="9aab366f70"><path d="M 150 83 L 859 83 L 859 793 L 150 793 Z M 150 83 " clip-rule="nonzero"/></clipPath><clipPath id="c0a52e3a8b"><path d="M 686.273438 -50.15625 L 988.785156 252.355469 L 432.554688 808.589844 L 130.042969 506.078125 Z M 686.273438 -50.15625 " clip-rule="nonzero"/></clipPath><clipPath id="bb3e7e14da"><path d="M 686.273438 -50.15625 L 988.785156 252.355469 L 432.554688 808.589844 L 130.042969 506.078125 Z M 686.273438 -50.15625 " clip-rule="nonzero"/></clipPath><clipPath id="57263629f1"><path d="M 23 82 L 732 82 L 732 791 L 23 791 Z M 23 82 " clip-rule="nonzero"/></clipPath><clipPath id="c562d6ab76"><path d="M -110.472656 254.71875 L 192.039062 -47.789062 L 748.269531 508.441406 L 445.757812 810.953125 Z M -110.472656 254.71875 " clip-rule="nonzero"/></clipPath><clipPath id="fe8dfbfa9f"><path d="M -110.472656 254.71875 L 192.039062 -47.789062 L 748.269531 508.441406 L 445.757812 810.953125 Z M -110.472656 254.71875 " clip-rule="nonzero"/></clipPath><clipPath id="958fdc5a4d"><rect x="0" width="1002" y="0" height="810"/></clipPath><clipPath id="f58054263f"><rect x="0" width="1002" y="0" height="810"/></clipPath><clipPath id="eec7874a46"><path d="M 150 24 L 860 24 L 860 733 L 150 733 Z M 150 24 " clip-rule="nonzero"/></clipPath><clipPath id="0c1c4d5be3"><path d="M 686.289062 -109.734375 L 991.230469 195.203125 L 435.972656 750.460938 L 131.035156 445.519531 Z M 686.289062 -109.734375 " clip-rule="nonzero"/></clipPath><clipPath id="b20ed57e75"><path d="M 686.289062 -109.734375 L 991.230469 195.203125 L 435.972656 750.460938 L 131.035156 445.519531 Z M 686.289062 -109.734375 " clip-rule="nonzero"/></clipPath><mask id="16a136ffa1"><g filter="url(#7a93edd8ba)"><rect x="-375" width="4500" fill="#000000" y="-80.999999" height="971.999992" fill-opacity="0.74"/></g></mask><clipPath id="d77e1295a1"><path d="M 15 22 L 725 22 L 725 731 L 15 731 Z M 15 22 " clip-rule="nonzero"/></clipPath><clipPath id="cb86282a9f"><path d="M -117.945312 195.15625 L 186.996094 -109.785156 L 742.25 445.46875 L 437.3125 750.410156 Z M -117.945312 195.15625 " clip-rule="nonzero"/></clipPath><clipPath id="45b52993a9"><path d="M -117.945312 195.15625 L 186.996094 -109.785156 L 742.25 445.46875 L 437.3125 750.410156 Z M -117.945312 195.15625 " clip-rule="nonzero"/></clipPath><clipPath id="4668f7d8da"><rect x="0" width="755" y="0" height="762"/></clipPath><clipPath id="d01e073b4d"><path d="M 681.046875 94.949219 L 789.21875 94.949219 L 789.21875 203.117188 L 681.046875 203.117188 Z M 681.046875 94.949219 " clip-rule="nonzero"/></clipPath><clipPath id="b3a5fb4f2a"><path d="M 735.132812 94.949219 C 705.261719 94.949219 681.046875 119.164062 681.046875 149.03125 C 681.046875 178.902344 705.261719 203.117188 735.132812 203.117188 C 765.003906 203.117188 789.21875 178.902344 789.21875 149.03125 C 789.21875 119.164062 765.003906 94.949219 735.132812 94.949219 Z M 735.132812 94.949219 " clip-rule="nonzero"/></clipPath><clipPath id="2801a11a1e"><path d="M 0.046875 0.949219 L 108.21875 0.949219 L 108.21875 109.117188 L 0.046875 109.117188 Z M 0.046875 0.949219 " clip-rule="nonzero"/></clipPath><clipPath id="f92f5ef013"><path d="M 54.132812 0.949219 C 24.261719 0.949219 0.046875 25.164062 0.046875 55.03125 C 0.046875 84.902344 24.261719 109.117188 54.132812 109.117188 C 84.003906 109.117188 108.21875 84.902344 108.21875 55.03125 C 108.21875 25.164062 84.003906 0.949219 54.132812 0.949219 Z M 54.132812 0.949219 " clip-rule="nonzero"/></clipPath><clipPath id="bd8ccb9158"><rect x="0" width="109" y="0" height="110"/></clipPath><clipPath id="ee31b73a65"><path d="M 92.3125 88.046875 L 200.484375 88.046875 L 200.484375 196.21875 L 92.3125 196.21875 Z M 92.3125 88.046875 " clip-rule="nonzero"/></clipPath><clipPath id="8da811e5bd"><path d="M 146.398438 88.046875 C 116.527344 88.046875 92.3125 112.261719 92.3125 142.132812 C 92.3125 172.003906 116.527344 196.21875 146.398438 196.21875 C 176.269531 196.21875 200.484375 172.003906 200.484375 142.132812 C 200.484375 112.261719 176.269531 88.046875 146.398438 88.046875 Z M 146.398438 88.046875 " clip-rule="nonzero"/></clipPath><clipPath id="7700768ace"><path d="M 0.3125 0.046875 L 108.484375 0.046875 L 108.484375 108.21875 L 0.3125 108.21875 Z M 0.3125 0.046875 " clip-rule="nonzero"/></clipPath><clipPath id="25602b3e7e"><path d="M 54.398438 0.046875 C 24.527344 0.046875 0.3125 24.261719 0.3125 54.132812 C 0.3125 84.003906 24.527344 108.21875 54.398438 108.21875 C 84.269531 108.21875 108.484375 84.003906 108.484375 54.132812 C 108.484375 24.261719 84.269531 0.046875 54.398438 0.046875 Z M 54.398438 0.046875 " clip-rule="nonzero"/></clipPath><clipPath id="0eaead8086"><rect x="0" width="109" y="0" height="109"/></clipPath><clipPath id="5f8723de8a"><rect x="0" width="2792" y="0" height="702"/></clipPath></defs><g mask="url(#b798080a85)"><g transform="matrix(1, 0, 0, 1, 0, 0.000000000000039746)"><g clip-path="url(#f58054263f)"><g clip-path="url(#4bc5619d1e)"><g transform="matrix(1, 0, 0, 1, 0, 0.000000000000039746)"><g clip-path="url(#958fdc5a4d)"><g clip-path="url(#9aab366f70)"><g clip-path="url(#c0a52e3a8b)"><g clip-path="url(#bb3e7e14da)"><path fill="#4b4a49" d="M 414.292969 781.175781 C 428.921875 795.800781 452.535156 795.800781 467.160156 781.175781 L 847.992188 400.34375 C 855.570312 392.765625 859.621094 382.371094 858.917969 371.796875 L 845.171875 132.832031 C 844.113281 113.796875 829.136719 98.820312 810.101562 97.761719 L 570.960938 83.839844 C 560.386719 83.132812 549.992188 87.1875 542.410156 94.765625 L 161.582031 475.59375 C 146.957031 490.222656 146.957031 513.835938 161.582031 528.464844 Z M 414.292969 781.175781 " fill-opacity="1" fill-rule="nonzero"/></g></g></g><g clip-path="url(#57263629f1)"><g clip-path="url(#c562d6ab76)"><g clip-path="url(#fe8dfbfa9f)"><path fill="#4b4a49" d="M 720.855469 526.703125 C 735.480469 512.074219 735.480469 488.460938 720.855469 473.832031 L 340.027344 93.003906 C 332.445312 85.425781 322.050781 81.371094 311.476562 82.078125 L 72.511719 95.824219 C 53.476562 96.878906 38.5 111.859375 37.441406 130.890625 L 23.519531 370.03125 C 22.816406 380.609375 26.867188 391.003906 34.445312 398.582031 L 415.277344 779.414062 C 429.902344 794.039062 453.515625 794.039062 468.144531 779.414062 Z M 720.855469 526.703125 " fill-opacity="1" fill-rule="nonzero"/></g></g></g></g></g></g></g></g></g><g clip-path="url(#eec7874a46)"><g clip-path="url(#0c1c4d5be3)"><g clip-path="url(#b20ed57e75)"><path fill="#0746e8" d="M 414.296875 721.632812 C 428.925781 736.261719 452.542969 736.261719 467.167969 721.632812 L 848.015625 340.785156 C 855.59375 333.207031 859.648438 322.808594 858.945312 312.234375 L 845.195312 73.257812 C 844.140625 54.222656 829.160156 39.242188 810.125 38.1875 L 570.972656 24.261719 C 560.398438 23.558594 550 27.613281 542.421875 35.191406 L 161.574219 416.039062 C 146.945312 430.664062 146.945312 454.28125 161.574219 468.910156 Z M 414.296875 721.632812 " fill-opacity="1" fill-rule="nonzero"/></g></g></g><g mask="url(#16a136ffa1)"><g transform="matrix(1, 0, 0, 1, 0, 0.000000000000039746)"><g clip-path="url(#4668f7d8da)"><g clip-path="url(#d77e1295a1)"><g clip-path="url(#cb86282a9f)"><g clip-path="url(#45b52993a9)"><path fill="#0e0067" d="M 713.425781 467.148438 C 728.050781 452.519531 728.050781 428.902344 713.425781 414.277344 L 332.574219 33.429688 C 324.996094 25.847656 314.597656 21.796875 304.023438 22.5 L 65.046875 36.246094 C 46.015625 37.304688 31.035156 52.285156 29.976562 71.320312 L 16.054688 310.472656 C 15.347656 321.046875 19.402344 331.445312 26.980469 339.023438 L 407.828125 719.871094 C 422.457031 734.496094 446.074219 734.5 460.699219 719.871094 Z M 713.425781 467.148438 " fill-opacity="1" fill-rule="nonzero"/></g></g></g></g></g></g><g clip-path="url(#d01e073b4d)"><g clip-path="url(#b3a5fb4f2a)"><g transform="matrix(1, 0, 0, 1, 681, 94)"><g clip-path="url(#bd8ccb9158)"><g clip-path="url(#2801a11a1e)"><g clip-path="url(#f92f5ef013)"><path fill="#ffffff" d="M 0.046875 0.949219 L 108.21875 0.949219 L 108.21875 109.117188 L 0.046875 109.117188 Z M 0.046875 0.949219 " fill-opacity="1" fill-rule="nonzero"/></g></g></g></g></g></g><g clip-path="url(#ee31b73a65)"><g clip-path="url(#8da811e5bd)"><g transform="matrix(1, 0, 0, 1, 92, 88)"><g clip-path="url(#0eaead8086)"><g clip-path="url(#7700768ace)"><g clip-path="url(#25602b3e7e)"><path fill="#ffffff" d="M 0.3125 0.046875 L 108.484375 0.046875 L 108.484375 108.21875 L 0.3125 108.21875 Z M 0.3125 0.046875 " fill-opacity="1" fill-rule="nonzero"/></g></g></g></g></g></g><g transform="matrix(1, 0, 0, 1, 958, 9)"><g clip-path="url(#5f8723de8a)"><g fill="#0746e8" fill-opacity="1"><g transform="translate(0.41823, 526.099019)"><g><path d="M 241.8125 -178.75 C 262 -174.445312 278.21875 -164.429688 290.46875 -148.703125 C 302.71875 -132.984375 308.84375 -115.03125 308.84375 -94.84375 C 308.84375 -65.707031 298.660156 -42.613281 278.296875 -25.5625 C 257.941406 -8.519531 229.5625 0 193.15625 0 L 30.78125 0 L 30.78125 -348.5625 L 187.6875 -348.5625 C 223.101562 -348.5625 250.820312 -340.453125 270.84375 -324.234375 C 290.875 -308.015625 300.890625 -286.003906 300.890625 -258.203125 C 300.890625 -237.671875 295.507812 -220.617188 284.75 -207.046875 C 274 -193.484375 259.6875 -184.050781 241.8125 -178.75 Z M 115.6875 -207.546875 L 171.296875 -207.546875 C 185.203125 -207.546875 195.878906 -210.609375 203.328125 -216.734375 C 210.773438 -222.859375 214.5 -231.878906 214.5 -243.796875 C 214.5 -255.710938 210.773438 -264.816406 203.328125 -271.109375 C 195.878906 -277.398438 185.203125 -280.546875 171.296875 -280.546875 L 115.6875 -280.546875 Z M 178.25 -68.515625 C 192.488281 -68.515625 203.492188 -71.742188 211.265625 -78.203125 C 219.046875 -84.660156 222.9375 -94.007812 222.9375 -106.25 C 222.9375 -118.5 218.878906 -128.097656 210.765625 -135.046875 C 202.660156 -142.003906 191.492188 -145.484375 177.265625 -145.484375 L 115.6875 -145.484375 L 115.6875 -68.515625 Z M 178.25 -68.515625 "/></g></g></g><g fill="#0746e8" fill-opacity="1"><g transform="translate(327.547033, 526.099019)"><g><path d="M 115.6875 -65.546875 L 226.921875 -65.546875 L 226.921875 0 L 30.78125 0 L 30.78125 -348.5625 L 115.6875 -348.5625 Z M 115.6875 -65.546875 "/></g></g></g><g fill="#0746e8" fill-opacity="1"><g transform="translate(564.330709, 526.099019)"><g><path d="M 114.203125 -348.5625 L 114.203125 -140.015625 C 114.203125 -119.160156 119.332031 -103.101562 129.59375 -91.84375 C 139.851562 -80.59375 154.914062 -74.96875 174.78125 -74.96875 C 194.644531 -74.96875 209.867188 -80.59375 220.453125 -91.84375 C 231.046875 -103.101562 236.34375 -119.160156 236.34375 -140.015625 L 236.34375 -348.5625 L 321.25 -348.5625 L 321.25 -140.515625 C 321.25 -109.398438 314.628906 -83.082031 301.390625 -61.5625 C 288.148438 -40.050781 270.359375 -23.832031 248.015625 -12.90625 C 225.671875 -1.988281 200.765625 3.46875 173.296875 3.46875 C 145.816406 3.46875 121.234375 -1.90625 99.546875 -12.65625 C 77.867188 -23.414062 60.738281 -39.632812 48.15625 -61.3125 C 35.582031 -83 29.296875 -109.398438 29.296875 -140.515625 L 29.296875 -348.5625 Z M 114.203125 -348.5625 "/></g></g></g><g fill="#0746e8" fill-opacity="1"><g transform="translate(914.293897, 526.099019)"><g><path d="M 115.6875 -280.546875 L 115.6875 -210.03125 L 229.390625 -210.03125 L 229.390625 -144.484375 L 115.6875 -144.484375 L 115.6875 -68.03125 L 244.296875 -68.03125 L 244.296875 0 L 30.78125 0 L 30.78125 -348.5625 L 244.296875 -348.5625 L 244.296875 -280.546875 Z M 115.6875 -280.546875 "/></g></g></g><g fill="#0e0067" fill-opacity="1"><g transform="translate(1182.848771, 526.099019)"><g><path d="M 332.671875 -348.5625 L 332.671875 0 L 247.765625 0 L 247.765625 -143.5 L 115.6875 -143.5 L 115.6875 0 L 30.78125 0 L 30.78125 -348.5625 L 115.6875 -348.5625 L 115.6875 -212.015625 L 247.765625 -212.015625 L 247.765625 -348.5625 Z M 332.671875 -348.5625 "/></g></g></g><g fill="#0e0067" fill-opacity="1"><g transform="translate(1545.718472, 526.099019)"><g><path d="M 115.6875 -280.546875 L 115.6875 -210.03125 L 229.390625 -210.03125 L 229.390625 -144.484375 L 115.6875 -144.484375 L 115.6875 -68.03125 L 244.296875 -68.03125 L 244.296875 0 L 30.78125 0 L 30.78125 -348.5625 L 244.296875 -348.5625 L 244.296875 -280.546875 Z M 115.6875 -280.546875 "/></g></g></g><g fill="#0e0067" fill-opacity="1"><g transform="translate(1814.271859, 526.099019)"><g><path d="M 247.765625 -61.5625 L 117.671875 -61.5625 L 96.828125 0 L 7.9375 0 L 134.0625 -348.5625 L 232.375 -348.5625 L 358.5 0 L 268.625 0 Z M 225.921875 -127.109375 L 182.71875 -254.71875 L 140.015625 -127.109375 Z M 225.921875 -127.109375 "/></g></g></g><g fill="#0e0067" fill-opacity="1"><g transform="translate(2180.119901, 526.099019)"><g><path d="M 208.546875 0 L 136.046875 -131.578125 L 115.6875 -131.578125 L 115.6875 0 L 30.78125 0 L 30.78125 -348.5625 L 173.296875 -348.5625 C 200.765625 -348.5625 224.179688 -343.757812 243.546875 -334.15625 C 262.910156 -324.5625 277.390625 -311.40625 286.984375 -294.6875 C 296.585938 -277.96875 301.390625 -259.347656 301.390625 -238.828125 C 301.390625 -215.660156 294.851562 -194.972656 281.78125 -176.765625 C 268.707031 -158.554688 249.425781 -145.644531 223.9375 -138.03125 L 304.375 0 Z M 115.6875 -191.65625 L 168.328125 -191.65625 C 183.878906 -191.65625 195.546875 -195.460938 203.328125 -203.078125 C 211.109375 -210.691406 215 -221.453125 215 -235.359375 C 215 -248.597656 211.109375 -259.023438 203.328125 -266.640625 C 195.546875 -274.253906 183.878906 -278.0625 168.328125 -278.0625 L 115.6875 -278.0625 Z M 115.6875 -191.65625 "/></g></g></g><g fill="#0e0067" fill-opacity="1"><g transform="translate(2503.773873, 526.099019)"><g><path d="M 281.53125 -348.5625 L 281.53125 -280.546875 L 189.171875 -280.546875 L 189.171875 0 L 104.265625 0 L 104.265625 -280.546875 L 11.921875 -280.546875 L 11.921875 -348.5625 Z M 281.53125 -348.5625 "/></g></g></g></g></g></svg>